<svg id="Layer_1" data-name="Layer 1" xmlns="http://www.w3.org/2000/svg" xmlns:xlink="http://www.w3.org/1999/xlink" viewBox="0 0 500 500"><defs><style>.cls-1{fill:url(#linear-gradient);}.cls-2{fill:url(#linear-gradient-2);}.cls-3{fill:url(#linear-gradient-3);}.cls-4{fill:#d60707;}.cls-5{fill:url(#linear-gradient-4);}</style><linearGradient id="linear-gradient" x1="46.44" y1="254.76" x2="474.27" y2="254.76" gradientTransform="translate(-35.83 36.18) rotate(-10.35)" gradientUnits="userSpaceOnUse"><stop offset="0.19" stop-color="#891c24"/><stop offset="0.75" stop-color="#ed1c24"/><stop offset="1" stop-color="#be1e2d"/></linearGradient><linearGradient id="linear-gradient-2" x1="159.9" y1="100.89" x2="272.48" y2="100.89" gradientTransform="translate(53.65 -12.05) rotate(17.07)" gradientUnits="userSpaceOnUse"><stop offset="0" stop-color="#be1e2d"/><stop offset="0.44" stop-color="#ed1c24"/><stop offset="1" stop-color="#861f20"/></linearGradient><linearGradient id="linear-gradient-3" x1="6.76" y1="300.05" x2="347.92" y2="300.05" gradientTransform="matrix(1.07, -0.11, 0.31, 1.26, -90.36, -47.91)" gradientUnits="userSpaceOnUse"><stop offset="0.44" stop-color="#ed1c24"/><stop offset="0.72" stop-color="#891d22"/><stop offset="1" stop-color="#be1e2d"/><stop offset="1"/></linearGradient><linearGradient id="linear-gradient-4" x1="44.25" y1="167.47" x2="147.74" y2="167.47" gradientUnits="userSpaceOnUse"><stop offset="0" stop-color="#be1e2d"/><stop offset="0.44" stop-color="#ed1c24"/><stop offset="1" stop-color="#871f20"/><stop offset="1"/></linearGradient></defs><title>logooRED</title><path class="cls-1" d="M287,424.57c51.64-23,104.38-227.2,104.38-227.2s14.15-24.15-72.66-50.61-162.1-35.58-170.79-58.47c0,0-25.56-61-15.1-66.88s276.52,80.21,276.52,80.21,82.66,18.87,53.94,98.56S438.54,497.87,197.87,486.73c0,0-34.41-2.74-108.62-24C89.25,462.75,237.9,446.44,287,424.57Z"/><path class="cls-2" d="M324.73,12.85,147.93,233.5s-9,11.22-8.77,29,.52,21.28.52,21.28L309.88,62S329.25,44,324.73,12.85Z"/><path class="cls-3" d="M345.58,207c10.16-24.93-27.27-49.81-27.27-49.81,76,54.29,10.84,75.21,10.84,75.21s1.79,7.16-20.82,48.52-44.17,39.89-44.17,39.89c6.39,10.7.94,23.72.94,23.72C239.42,380,163.55,464.74,80,459.39S44.26,311.71,44.26,311.71C59,570.86,252.73,359.39,247.39,328.3S128.52,200.61,128.52,200.61l27.33.09,97,96.53s56-10.47,59.58-77.87C312.43,219.36,338.5,224.38,345.58,207Z"/><polygon class="cls-4" points="333.86 288.08 334.47 306.08 315.47 306.75 314.85 288.75 333.86 288.08"/><polygon class="cls-4" points="315.31 306.91 315.92 324.92 296.92 325.58 296.3 307.58 315.31 306.91"/><polygon class="cls-4" points="337.57 309.12 338.18 327.12 319.18 327.79 318.56 309.79 337.57 309.12"/><polygon class="cls-4" points="378.66 211.39 379.27 229.4 360.27 230.06 359.66 212.06 378.66 211.39"/><polygon class="cls-4" points="360.11 230.23 360.73 248.23 341.72 248.9 341.11 230.9 360.11 230.23"/><path class="cls-5" d="M44.26,311.71S75.74,79.07,147.74,95.5c0,0-14.83-29.77-19.06-53.26L127,25.15s-.84-7.17-6.11,6.17-30,44-57.42,149.87c0,0-10,39.86-14.8,73.27S44.26,311.71,44.26,311.71Z"/></svg>